<svg xmlns="http://www.w3.org/2000/svg"
shape-rendering="geometricPrecision"
width="4000" height="4000" viewBox="0 0 450 450">
  <metadata>null</metadata>

<path d="
M 29.528 380.612
C 29.529 380.451 29.531 380.29 29.533 380.13
C 31.077 378.935 35.517 379.764 37.508 379.769
C 42.341 379.779 47.175 379.784 52.008 379.789
C 54.428 379.791 57.017 379.507 59.414 379.788
C 59.273 381.986 59.416 384.248 59.414 386.452
C 52.119 386.996 44.634 385.888 37.36 386.723
C 37.362 389.801 37.412 392.881 37.401 395.959
C 43.763 395.859 50.398 396.569 56.725 395.874
C 56.764 398.061 56.678 400.329 56.947 402.503
C 50.511 402.623 44.029 402.749 37.59 402.671
C 37.14 403.446 37.355 404.904 37.355 405.809
C 37.354 408.185 37.441 410.567 37.382 412.941
C 42.81 412.366 48.547 412.914 54.009 412.92
C 55.695 412.922 58.939 412.223 60.425 412.871
C 60.237 415.135 60.221 417.483 60.292 419.753
C 55.905 419.388 51.402 419.667 47.002 419.677
C 41.196 419.69 35.363 419.495 29.564 419.753
C 29.17 419.154 29.46 417.752 29.476 417.024
C 29.535 414.383 29.578 411.741 29.586 409.1
C 29.613 399.614 29.754 390.095 29.528 380.612 Z"
opacity="1" fill="rgb(2,2,2)" fill-rule="evenodd" />
<path d="
M 64.412 418.998
C 66.743 416.112 68.769 412.992 71.028 410.052
C 72.363 408.316 74.293 406.406 75.284 404.479
C 74.825 402.892 73.177 401.176 72.237 399.813
C 69.813 396.3 67.001 392.806 64.909 389.104
C 67.66 389.631 70.69 388.876 73.397 389.554
C 75.428 392.788 78.335 395.524 80.171 398.874
C 80.589 398.901 81.428 397.157 81.72 396.785
C 83.592 394.394 85.221 391.84 87.055 389.43
C 89.333 389.019 92.76 388.95 95.04 389.345
C 93.109 393.061 89.976 396.694 87.526 400.115
C 86.575 401.444 84.667 402.933 84.58 404.597
C 87.819 407.567 90.152 411.937 92.812 415.425
C 93.73 416.629 95.976 418.442 96.434 419.774
C 93.448 419.923 90.478 419.727 87.49 419.987
C 86.621 419.664 85.785 417.779 85.26 416.991
C 83.648 414.572 81.836 412.124 79.882 409.972
C 78.448 412.239 76.719 414.353 75.185 416.559
C 74.495 417.551 73.915 419.149 72.9 419.822
C 70.116 419.948 66.878 420.009 64.115 419.671
C 64.214 419.447 64.313 419.222 64.412 418.998 Z"
opacity="1" fill="rgb(1,1,1)" fill-rule="evenodd" />
<path d="
M 79.029 266.665
C 79.991 264.062 80.537 261.275 81.397 258.631
C 83.278 252.851 85.45 247.094 87.788 241.485
C 90.6 234.736 94.057 228.185 97.577 221.783
C 107.328 204.044 119.908 187.597 135.156 174.225
C 144.237 166.262 154.466 159.089 165.982 155.148
C 172.14 153.041 178.317 152.042 184.768 151.476
C 199.562 150.179 211.833 159.603 225.107 164.047
C 233.79 166.954 243.568 166.531 252.196 163.581
C 267.827 158.238 281.385 147.762 293.291 136.587
C 317.449 113.911 336.533 87.228 351.958 57.969
C 350.328 57.492 348.277 57.769 346.575 57.695
C 341.637 57.479 336.18 57.815 331.332 57.092
C 331.634 56.124 333.491 55.076 334.306 54.388
C 336.857 52.235 339.334 50 341.822 47.775
C 348.683 41.637 355.462 35.406 362.321 29.264
C 365.702 26.237 368.759 22.391 372.67 20.052
C 374.934 31.887 376.129 43.976 377.858 55.904
C 378.866 62.863 380.902 69.983 381.383 76.973
C 377.533 74.221 373.822 70.791 370.282 67.644
C 369.241 66.717 367.267 64.246 365.925 64.121
C 351.381 103.108 329.927 139.038 300.151 168.211
C 289.626 178.522 276.833 188.052 262.991 193.331
C 257.562 195.402 251.969 197.244 246.143 197.774
C 235.421 198.751 225.398 196.977 215.673 192.371
C 208.328 188.893 201.941 183.734 194.035 181.436
C 182.305 178.028 170.631 180.067 159.633 184.912
C 147.042 190.458 136.12 199.149 125.966 208.27
C 116.199 217.045 106.996 226.85 99.068 237.334
C 93.611 244.55 88.723 252.084 83.701 259.597
C 82.438 261.486 81.479 263.528 80.386 265.516
C 80.085 266.064 79.617 267.256 78.978 267.465
C 78.957 266.985 78.95 267.252 79.029 266.665 Z"
opacity="1" fill="rgb(121,193,64)" fill-rule="evenodd" />
<path d="
M 87.319 134.914
C 85.375 138.879 83.501 142.679 82.284 146.953
C 81.508 149.675 81.346 152.923 80.363 155.501
C 80.54 153.024 79.751 150.336 79.73 147.77
C 79.684 142.206 79.386 136.415 80.114 130.89
C 81.259 122.189 85.015 113.095 91.276 106.838
C 98.574 99.543 108.165 97.035 117.881 94.581
C 124.329 92.953 130.77 91.292 137.193 89.573
C 174.653 79.547 212.502 70.69 250.188 61.551
C 260.729 58.995 271.258 56.344 281.725 53.504
C 288.28 51.726 295.168 49.163 301.951 51.01
C 303.558 51.448 305.108 52.099 306.567 52.9
C 315.349 57.724 316.379 67.89 318.589 76.703
C 319.785 81.469 321.487 86.317 322.354 91.142
C 322.603 92.532 321.528 93.596 320.748 94.623
C 319.141 96.739 317.589 98.882 315.914 100.948
C 315.353 101.641 314.439 103.252 313.541 103.458
C 312.103 100.821 311.704 97.541 310.895 94.676
C 309.184 88.62 307.695 82.504 306.05 76.431
C 305.251 73.479 304.886 69.417 302.945 66.986
C 301.832 66.315 300.207 66.688 298.98 66.863
C 295.533 67.353 292.083 68.401 288.673 69.128
C 275.496 71.936 262.345 74.859 249.15 77.59
C 214.637 84.732 180.003 91.604 145.651 99.487
C 139.132 100.983 132.511 102.486 125.911 103.565
C 116.924 105.034 107.873 106.255 100.337 111.825
C 95.217 115.61 90.41 120.972 88.344 127.095
C 87.811 128.675 87.413 130.342 87.338 132.011
C 87.298 132.878 87.664 134.159 87.319 134.914 Z"
opacity="1" fill="rgb(201,201,201)" fill-rule="evenodd" />
<path d="
M 80.363 155.501
C 81.346 152.923 81.508 149.675 82.284 146.953
C 83.501 142.679 85.375 138.879 87.319 134.914
C 91.443 129.868 94.901 124.49 100.379 120.698
C 107.626 115.681 116.186 112.735 124.958 111.873
C 129.945 111.382 135.005 111.636 140.008 111.643
C 147.173 111.651 154.338 111.65 161.503 111.594
C 190.832 111.364 220.172 111.578 249.503 111.564
C 261.836 111.558 274.17 111.57 286.503 111.561
C 292.989 111.556 300.133 110.804 306.529 111.982
C 306.31 113.049 304.994 114.129 304.254 114.902
C 302.183 117.065 300.186 119.827 297.776 121.599
C 293.435 122.252 288.413 121.562 284.003 121.574
C 273.838 121.602 263.672 121.579 253.506 121.572
C 223.339 121.549 193.171 121.56 163.004 121.597
C 154.838 121.607 146.673 121.582 138.507 121.58
C 126.62 121.577 115.363 121.89 105.483 129.436
C 97.118 135.825 91.756 145.596 90.411 156.008
C 89.651 161.898 90.157 168.07 90.175 173.997
C 90.204 183.998 90.218 193.999 90.227 204.001
C 90.231 207.419 90.234 210.838 90.266 214.256
C 90.284 216.071 90.59 218.117 90.177 219.896
C 89.883 221.16 88.85 222.314 88.231 223.44
C 86.917 225.833 85.622 228.237 84.315 230.634
C 83.264 232.562 82.583 234.667 81.55 236.587
C 81.384 236.895 80.922 238.542 80.432 238.278
C 79.963 235.138 80.296 231.686 80.255 228.504
C 80.161 221.338 80.251 214.167 80.256 207.001
C 80.268 189.869 79.626 172.614 80.363 155.501 Z"
opacity="1" fill="rgb(85,85,86)" fill-rule="evenodd" />
<path d="
M 89.824 265.202
C 90.357 265.725 90.361 265.806 90.382 266.522
C 89.779 273.844 89.875 281.846 92.045 288.919
C 95.59 300.477 104.245 309.868 115.713 313.894
C 123.045 316.468 130.53 316.066 138.17 316.069
C 148.615 316.073 159.06 316.051 169.505 316.018
C 205.67 315.903 241.839 316.04 278.004 316.049
C 286.838 316.051 295.672 316.008 304.506 316.049
C 315.677 316.101 325.946 316.278 335.713 309.998
C 344.696 304.221 350.458 294.405 352.236 283.989
C 353.567 276.193 352.991 267.694 352.875 259.808
C 355.264 259.823 357.659 259.799 360.049 259.774
C 360.851 259.765 362.225 259.477 362.893 259.912
C 362.428 267.574 363.322 275.296 362.538 282.946
C 361.213 295.875 354.048 309.302 343.273 316.802
C 337.453 320.853 330.931 323.817 323.937 325.138
C 318.53 326.16 312.972 325.839 307.498 325.824
C 299.165 325.801 290.831 325.779 282.497 325.781
C 244.83 325.79 207.164 325.738 169.498 325.812
C 159.164 325.832 148.831 325.824 138.498 325.852
C 129.636 325.876 120.926 326.096 112.446 323.067
C 99.047 318.281 87.685 307.535 83.059 293.962
C 82.112 291.182 81.342 288.389 80.835 285.493
C 80.654 284.465 80.165 283.057 80.401 282.021
C 80.622 281.052 81.48 280.165 81.947 279.3
C 83.16 277.056 84.34 274.795 85.581 272.566
C 86.81 270.358 87.914 266.858 89.824 265.202 Z"
opacity="1" fill="rgb(90,89,90)" fill-rule="evenodd" />
<path d="
M 340.893 131.721
C 343.202 133.586 345.39 136.418 346.989 138.917
C 346.344 138.787 346.152 139.724 345.823 140.182
C 344.605 141.877 343.608 143.73 342.446 145.469
C 337.678 152.598 333.107 159.837 327.767 166.563
C 323.454 171.996 319.128 177.355 314.33 182.376
C 313.612 183.128 309.643 186.275 310.981 187.287
C 296.959 188.36 284.686 196.278 280.923 210.378
C 275.84 211.592 271.042 215.331 266.171 217.392
C 257.47 221.075 247.828 222.929 238.381 222.809
C 230.802 222.713 223.16 221.058 216.235 217.979
C 206.521 213.661 197.809 207.648 187.004 206.349
C 176.391 205.073 165.841 208.246 156.298 212.63
C 138.935 220.606 124.561 233.015 110.204 245.329
C 105.139 249.674 100.748 254.762 95.898 259.337
C 93.602 261.503 90.815 263.185 90.382 266.522
C 90.361 265.806 90.357 265.725 89.824 265.202
C 90.179 263.093 92.617 260.393 93.742 258.536
C 97.444 252.425 101.505 246.572 105.949 240.976
C 119.015 224.52 134.38 208.455 152.277 197.217
C 161.57 191.381 172.803 186.416 184.031 187.411
C 195.75 188.449 204.643 196.044 215.086 200.553
C 229.687 206.857 246.718 207.297 261.725 201.923
C 285.174 193.526 304.702 176.006 320.733 157.404
C 325.6 151.756 330.278 145.928 334.759 139.967
C 336.109 138.172 337.444 136.362 338.749 134.535
C 339.397 133.627 339.989 132.353 340.893 131.721 Z"
opacity="1" fill="rgb(203,202,203)" fill-rule="evenodd" />
<path d="
M 101.312 389.815
C 103.634 388.859 106.684 389.743 109.138 389.44
C 109.265 390.691 109.02 391.894 108.886 393.138
C 110.321 392.321 111.387 390.911 112.901 390.146
C 114.441 389.368 116.091 389.107 117.789 388.983
C 119.667 388.847 121.52 389.126 123.311 389.69
C 137.707 394.23 136.937 416.868 121.876 419.801
C 119.874 420.191 117.753 420.32 115.748 419.898
C 113.255 419.373 111.022 418.103 109.06 416.508
C 109.511 420.956 109.098 425.439 109.303 429.897
C 106.797 429.576 103.571 430.418 101.218 429.668
C 101.473 416.394 100.905 403.082 101.312 389.815 Z
M 109.385 402.066
C 108.285 406.366 110.323 410.979 114.3 412.945
C 118.782 415.162 124.002 412.138 125.249 407.571
C 126.303 403.712 125.153 399.289 121.776 396.953
C 116.997 393.649 110.758 396.697 109.385 402.066 Z"
opacity="1" fill="rgb(0,0,0)" fill-rule="evenodd" />
<path d="
M 138.913 401.584
C 139.713 398.136 141.215 394.901 143.967 392.571
C 149.702 387.714 158.913 387.91 164.543 392.764
C 169.11 396.702 168.863 401.75 169.698 407.16
C 167.905 406.745 165.408 407.104 163.513 407.002
C 157.959 406.704 151.902 406.422 146.381 407.047
C 149.251 414.628 157.752 415.444 163.518 410.559
C 164.648 411.827 165.804 413.065 167.013 414.264
C 167.287 414.536 168.078 415.054 167.817 415.448
C 166.027 417.855 161.831 419.245 159.01 419.755
C 148.005 421.746 136.473 413.655 138.913 401.584 Z
M 146.371 401.674
C 146.337 401.82 146.303 401.967 146.269 402.113
C 151.434 402.04 156.741 402.539 161.887 402.128
C 162.128 401.601 161.609 400.549 161.451 400.008
C 160.668 397.337 157.825 395.094 155.005 394.991
C 150.411 394.823 148.032 397.855 146.371 401.674 Z"
opacity="1" fill="rgb(1,1,1)" fill-rule="evenodd" />
<path d="
M 219.901 92.041
C 220.263 92.281 220.477 92.031 220.704 92.638
C 220.965 93.333 219.918 93.519 220.701 94.025
C 224.727 96.628 229.997 96.172 234.58 96.051
C 237.364 95.977 240.156 96.111 242.941 96.137
C 256.167 96.259 269.373 95.63 282.596 95.892
C 287.708 95.993 292.815 96.081 297.934 96.11
C 299.08 96.116 300.263 96.112 301.402 96.254
C 301.676 96.289 302.59 96.679 302.813 96.527
C 303.175 98.398 303.96 100.155 304.342 102.029
C 304.382 102.223 304.884 103.639 304.813 103.746
C 304.666 103.968 304.282 103.761 304.016 103.771
C 302.593 103.379 300.986 103.571 299.515 103.483
C 296.62 103.311 293.729 102.998 290.825 103.153
C 289.182 103.241 287.616 103.744 285.989 103.797
C 284.785 102.818 281.964 103.631 280.479 103.674
C 275.657 103.813 270.821 103.711 265.997 103.7
C 257.707 103.682 249.227 104.188 240.957 103.685
C 239.728 103.611 239.428 102.312 238.028 102.182
C 234.467 101.851 231.06 102.398 227.549 102.624
C 223.857 102.861 220.137 102.378 216.449 102.894
C 215.633 103.008 215.165 103.661 214.399 103.814
C 212.059 104.281 209.223 103.151 206.984 103.951
C 197.159 103.903 187.319 104.014 177.505 103.975
C 173.701 103.96 168.777 105.074 165.128 103.915
C 165.986 102.927 168.111 102.882 169.334 102.574
C 172.795 101.702 176.314 101.09 179.818 100.404
C 193.213 97.78 206.504 94.656 219.901 92.041 Z"
opacity="1" fill="rgb(105,183,55)" fill-rule="evenodd" />
<path d="
M 176.884 389.276
C 179.298 389.106 182.542 388.864 184.903 389.417
C 184.921 390.56 184.689 391.728 184.448 392.841
C 184.503 393.069 185.85 391.903 186.054 391.743
C 187.17 390.865 188.299 390.145 189.652 389.673
C 193.064 388.483 197.491 388.818 200.693 390.454
C 208.481 394.434 206.893 404.256 206.853 411.497
C 206.839 413.974 207.477 417.353 206.887 419.726
C 204.279 419.767 201.692 419.644 199.088 419.85
C 198.551 418.646 198.897 416.518 198.88 415.192
C 198.834 411.774 198.946 408.356 198.93 404.938
C 198.92 402.818 198.948 400.71 197.796 398.846
C 194.865 394.103 188.143 395.222 185.731 399.758
C 184.453 402.162 184.616 405.071 184.619 407.726
C 184.622 411.754 184.475 415.848 184.746 419.867
C 182.201 419.572 179.487 419.78 176.935 419.903
C 176.931 409.741 177.34 399.422 176.884 389.276 Z"
opacity="1" fill="rgb(1,1,1)" fill-rule="evenodd" />
<path d="
M 285.989 103.797
C 285.324 103.797 285.656 103.798 284.991 103.793
C 258.989 103.539 232.965 104.105 206.984 103.951
C 209.223 103.151 212.059 104.281 214.399 103.814
C 215.165 103.661 215.633 103.008 216.449 102.894
C 220.137 102.378 223.857 102.861 227.549 102.624
C 231.06 102.398 234.467 101.851 238.028 102.182
C 239.428 102.312 239.728 103.611 240.957 103.685
C 249.227 104.188 257.707 103.682 265.997 103.7
C 270.821 103.711 275.657 103.813 280.479 103.674
C 281.964 103.631 284.785 102.818 285.989 103.797 Z"
opacity="0.996" fill="rgb(131,177,92)" fill-rule="evenodd" />
<path d="
M 213.392 415.521
C 214.172 414.004 214.698 412.279 215.771 410.936
C 219.561 412.872 223.621 414.597 227.993 413.977
C 230.109 413.677 232.666 412.302 231.3 409.832
C 226.58 405.748 217.934 408.614 214.739 401.999
C 212.409 397.173 215.375 391.966 220.031 390.116
C 225.312 388.018 233.153 388.846 237.981 391.874
C 237.253 393.833 236.534 395.895 235.668 397.808
C 235.163 398.006 233.472 396.759 232.915 396.537
C 230.252 395.477 227.49 394.855 224.607 395.123
C 223.54 395.222 222.01 395.717 221.681 396.884
C 221.086 398.994 222.757 400.413 224.599 400.878
C 229.05 401.999 235.28 402.464 238.216 406.475
C 241.579 411.071 237.996 416.762 233.538 418.715
C 228.845 420.771 222.893 420.31 218.123 418.788
C 216.433 418.249 214.943 417.108 213.277 416.621
C 213.033 415.958 213.055 416.326 213.392 415.521 Z"
opacity="1" fill="rgb(1,1,1)" fill-rule="evenodd" />
<path d="
M 219.901 92.041
C 238.06 87.785 256.417 84.353 274.62 80.271
C 282.027 78.611 289.959 77.678 297.153 75.249
C 298.097 76.39 298.142 78.957 298.558 80.388
C 300.108 85.723 301.405 91.155 302.813 96.527
C 302.59 96.679 301.676 96.289 301.402 96.254
C 300.263 96.112 299.08 96.116 297.934 96.11
C 292.815 96.081 287.708 95.993 282.596 95.892
C 269.373 95.63 256.167 96.259 242.941 96.137
C 240.156 96.111 237.364 95.977 234.58 96.051
C 229.997 96.172 224.727 96.628 220.701 94.025
C 219.918 93.519 220.965 93.333 220.704 92.638
C 220.477 92.031 220.263 92.281 219.901 92.041 Z"
opacity="1" fill="rgb(116,188,58)" fill-rule="evenodd" />
<path d="
M 243.459 402.606
C 244.016 398.906 245.433 395.375 248.297 392.841
C 254.413 387.431 265.105 388.042 270.527 394.12
C 273.403 397.344 274.569 402.624 274.223 406.882
C 272.075 407.77 268.949 406.984 266.67 406.952
C 261.508 406.88 255.983 407.684 250.883 407.078
C 251.616 408.672 252.282 410.195 253.603 411.41
C 257.873 415.336 263.944 414.005 268.079 410.822
C 269.089 411.254 272.33 414.374 272.019 415.434
C 266.46 421.59 255.036 421.611 248.846 416.45
C 244.718 413.008 242.921 407.868 243.459 402.606 Z
M 251.454 400.557
C 251.262 401.114 251.113 401.664 250.974 402.237
C 256.25 401.936 261.639 402.545 266.888 402.122
C 267.083 401.69 266.448 400.636 266.278 400.208
C 265.458 398.147 263.601 396.286 261.472 395.565
C 256.926 394.024 253.44 396.747 251.454 400.557 Z"
opacity="1" fill="rgb(1,1,1)" fill-rule="evenodd" />
<path d="
M 280.923 210.378
C 284.686 196.278 296.959 188.36 310.981 187.287
C 315.279 186.938 319.693 187.197 324.004 187.22
C 331.504 187.26 339.004 187.285 346.504 187.299
C 355.195 187.316 364.93 186.088 372.139 191.972
C 381.132 199.312 379.539 211.52 379.562 221.809
C 379.572 226.47 380.062 231.459 378.848 236.006
C 377.822 239.844 375.848 243.495 372.937 246.245
C 364.011 254.679 349.717 252.088 338.502 252.112
C 332.553 252.125 326.606 252.184 320.658 252.235
C 316.287 252.272 311.778 252.532 307.436 251.946
C 299.776 250.913 292.687 247.178 287.639 241.312
C 285.841 239.223 284.272 236.903 283.061 234.424
C 281.437 231.097 280.51 227.482 280.069 223.817
C 279.513 219.194 279.93 214.895 280.923 210.378 Z
M 289.482 218.623
C 289.4 221.191 289.754 223.935 290.433 226.41
C 290.991 228.443 291.843 230.365 292.93 232.168
C 299.553 243.166 311.815 242.316 323.005 242.253
C 330.173 242.213 337.34 242.221 344.507 242.137
C 352.662 242.042 365.289 244.344 369.013 234.739
C 369.521 233.427 369.707 232.018 369.771 230.621
C 370.027 225.01 369.801 219.342 369.83 213.724
C 369.858 208.371 370.156 202.915 365.418 199.306
C 362.476 197.065 359.043 197.104 355.505 197.055
C 350.869 196.992 346.23 197.03 341.594 197.028
C 334.769 197.026 327.945 196.961 321.118 196.946
C 316.125 196.936 310.659 196.577 305.774 197.722
C 298.818 199.352 293.058 205.017 290.757 211.696
C 289.988 213.929 289.557 216.263 289.482 218.623 Z"
opacity="1" fill="rgb(89,87,88)" fill-rule="evenodd" />
<path d="
M 281.975 381.108
C 282.079 380.511 282.053 380.86 281.971 380.061
C 284.925 379.202 288.924 379.855 292.002 379.848
C 298.657 379.833 305.32 379.696 311.975 379.788
C 311.79 381.898 312.439 384.566 311.856 386.59
C 309.308 386.876 306.575 386.608 304.007 386.611
C 299.407 386.617 294.796 386.745 290.198 386.651
C 289.772 387.241 289.94 388.371 289.924 389.089
C 289.883 390.944 289.867 392.804 289.903 394.659
C 289.916 395.329 289.681 396.743 290.164 397.224
C 296.632 397 303.193 397.146 309.665 397.22
C 309.507 398.944 309.056 402.558 309.759 404.116
C 305.174 404.535 300.142 403.904 295.499 403.925
C 293.782 403.933 291.388 403.447 289.961 404.505
C 289.694 407.814 289.812 411.179 289.795 414.5
C 289.786 416.176 289.488 418.21 289.813 419.837
C 287.22 419.74 284.614 419.714 282.026 419.87
C 281.595 419.035 281.871 417.63 281.861 416.694
C 281.834 414.128 281.918 411.559 281.931 408.993
C 281.979 399.736 281.437 390.348 281.975 381.108 Z"
opacity="1" fill="rgb(109,188,60)" fill-rule="evenodd" />
<path d="
M 284.991 103.793
C 285.656 103.798 285.324 103.797 285.989 103.797
C 287.616 103.744 289.182 103.241 290.825 103.153
C 293.729 102.998 296.62 103.311 299.515 103.483
C 300.986 103.571 302.593 103.379 304.016 103.771
C 299.922 103.857 295.85 103.852 291.752 103.872
C 289.502 103.884 287.224 104.224 284.991 103.793 Z"
opacity="1" fill="rgb(145,181,111)" fill-rule="evenodd" />
<path d="
M 301.407 218.09
C 301.627 216.554 302.181 215.076 302.936 213.729
C 309.083 202.766 326.165 209.489 324.581 221.444
C 324.372 223.022 323.752 224.466 322.975 225.841
C 316.801 236.754 299.666 230.226 301.407 218.09 Z"
opacity="1" fill="rgb(85,83,85)" fill-rule="evenodd" />
<path d="
M 319.267 376.819
C 321.879 376.798 324.513 376.74 327.126 376.842
C 326.841 386.522 327.248 396.302 327.255 405.999
C 327.257 409.166 327.259 412.334 327.246 415.501
C 327.24 416.853 326.948 418.575 327.299 419.864
C 325.368 419.786 323.431 419.696 321.497 419.717
C 320.781 419.725 319.88 420.04 319.28 419.623
C 319.607 411.609 319.311 403.518 319.302 395.497
C 319.295 389.298 319.671 383.006 319.267 376.819 Z"
opacity="1" fill="rgb(107,189,60)" fill-rule="evenodd" />
<path d="
M 334.459 402.093
C 334.753 399.973 335.544 397.998 336.718 396.216
C 343.873 385.363 363.593 386.82 366.708 400.565
C 367.14 402.474 367.238 404.527 366.974 406.464
C 366.595 409.248 365.756 411.869 364.084 414.159
C 362.877 415.814 361.314 416.987 359.539 417.969
C 348.06 424.318 332.543 415.911 334.459 402.093 Z
M 342.414 402.584
C 341.736 405.733 342.725 409.217 345.135 411.373
C 348.778 414.632 354.787 414.39 357.572 410.169
C 358.167 409.267 358.616 408.218 358.852 407.166
C 359.532 404.125 358.919 400.318 356.662 398.033
C 351.765 393.073 343.81 396.09 342.414 402.584 Z"
opacity="1" fill="rgb(106,184,57)" fill-rule="evenodd" />
<path d="
M 346.989 138.917
C 345.39 136.418 343.202 133.586 340.893 131.721
C 340.926 130.847 341.468 130.15 341.974 129.475
C 343.204 127.833 344.222 124.762 345.864 123.623
C 349.398 125.619 351.996 129.168 354.287 132.438
C 360.207 140.888 362.917 151.246 363.061 161.504
C 363.119 165.67 363.123 169.837 363.181 174.003
C 363.208 175.893 362.934 178.246 363.431 180.067
C 363.023 180.337 361.518 179.882 361.007 179.846
C 358.667 179.679 355.393 180.39 353.212 179.67
C 353.697 166.515 354.842 150.35 346.989 138.917 Z"
opacity="1" fill="rgb(86,84,87)" fill-rule="evenodd" />
<path d="
M 369.914 389.442
C 372.431 389.338 374.964 389.404 377.483 389.422
C 377.717 391.704 379.21 394.375 379.983 396.572
C 381.659 401.341 383.185 406.152 384.78 410.946
C 385.106 411.078 385.344 409.515 385.513 409.143
C 386.323 407.371 386.803 405.445 387.476 403.614
C 389.187 398.96 391.239 394.152 392.383 389.326
C 394.078 389.394 397.47 388.647 398.952 389.391
C 400.02 391.153 400.636 393.568 401.344 395.516
C 402.436 398.519 403.704 401.481 404.669 404.526
C 405.241 406.33 405.791 409.417 406.898 410.913
C 407.932 409.56 408.213 407.086 408.769 405.474
C 410.624 400.095 412.101 394.463 414.299 389.223
C 416.188 389.328 418.105 389.235 420 389.226
C 420.38 389.224 421.545 389.134 421.756 389.408
C 417.825 399.19 413.787 409.44 411.191 419.669
C 408.929 420.505 405.476 419.531 403.029 419.871
C 402.208 419.088 401.966 416.849 401.521 415.746
C 400.054 412.111 398.696 408.397 397.455 404.679
C 397.179 403.85 396.221 399.848 395.384 400.087
C 393.338 406.677 390.38 413.072 388.647 419.751
C 388.188 420.084 387.119 419.878 386.549 419.876
C 384.684 419.868 382.772 419.763 380.915 419.945
C 380.346 419.513 380.217 418.426 379.986 417.753
C 379.353 415.909 378.697 414.072 377.999 412.252
C 376.107 407.319 374.226 402.372 372.423 397.407
C 371.504 394.878 370.888 392.064 369.53 389.736
C 369.658 389.638 369.786 389.54 369.914 389.442 Z"
opacity="1" fill="rgb(103,184,54)" fill-rule="evenodd" />

</svg>